 <svg version="1.0" xmlns="http://www.w3.org/2000/svg"  width="594.000000pt" height="594.000000pt" viewBox="0 0 594.000000 594.000000"  preserveAspectRatio="xMidYMid meet">  <g transform="translate(0.000000,594.000000) scale(0.100000,-0.100000)" fill="#000000" stroke="none"> <path d="M655 5258 c-3 -7 -4 -749 -3 -1648 l3 -1635 325 0 325 0 3 658 2 657 330 0 330 0 0 -990 0 -990 -657 -2 -658 -3 0 -325 0 -325 2305 0 2305 0 0 325 0 325 -655 5 -655 5 -5 655 -5 655 -325 0 -325 0 -5 -655 -5 -655 -328 -3 -327 -2 2 987 3 988 987 3 988 2 2 -657 3 -658 325 0 325 0 0 985 0 985 -658 3 -657 2 2 328 3 327 992 3 993 2 0 330 0 330 -1982 -2 -1983 -3 0 -325 0 -325 658 -3 657 -2 0 -330 0 -330 -990 0 -990 0 -2 658 -3 657 -323 3 c-253 2 -324 0 -327 -10z m620 -318 l0 -295 -295 0 -295 0 -3 285 c-1 157 0 290 3 298 3 10 67 12 297 10 l293 -3 0 -295z m1320 0 l0 -295 -295 0 -295 0 -3 285 c-1 157 0 290 3 298 3 10 67 12 297 10 l293 -3 0 -295z m660 0 l0 -295 -295 0 -295 0 -3 285 c-1 157 0 290 3 298 3 10 67 12 297 10 l293 -3 0 -295z m660 0 l0 -295 -295 0 -295 0 -3 285 c-1 157 0 290 3 298 3 10 67 12 297 10 l293 -3 0 -295z m660 0 l0 -295 -295 0 -295 0 -3 285 c-1 157 0 290 3 298 3 10 67 12 297 10 l293 -3 0 -295z m660 0 l0 -295 -295 0 -295 0 -3 285 c-1 157 0 290 3 298 3 10 67 12 297 10 l293 -3 0 -295z m660 0 l0 -295 -295 0 -295 0 -3 285 c-1 157 0 290 3 298 3 10 67 12 297 10 l293 -3 0 -295z m-4620 -660 l0 -295 -295 0 -295 0 -3 285 c-1 157 0 290 3 298 3 10 67 12 297 10 l293 -3 0 -295z m2640 0 l0 -295 -295 0 -295 0 -3 285 c-1 157 0 290 3 298 3 10 67 12 297 10 l293 -3 0 -295z m-2640 -660 l0 -295 -295 0 -295 0 -3 285 c-1 157 0 290 3 298 3 10 67 12 297 10 l293 -3 0 -295z m660 0 l0 -295 -295 0 -295 0 -3 285 c-1 157 0 290 3 298 3 10 67 12 297 10 l293 -3 0 -295z m660 0 l0 -295 -295 0 -295 0 -3 285 c-1 157 0 290 3 298 3 10 67 12 297 10 l293 -3 0 -295z m660 0 l0 -295 -295 0 -295 0 -3 285 c-1 157 0 290 3 298 3 10 67 12 297 10 l293 -3 0 -295z m660 0 l0 -295 -295 0 -295 0 -3 285 c-1 157 0 290 3 298 3 10 67 12 297 10 l293 -3 0 -295z m660 0 l0 -295 -295 0 -295 0 -3 285 c-1 157 0 290 3 298 3 10 67 12 297 10 l293 -3 0 -295z m660 0 l0 -295 -295 0 -295 0 -3 285 c-1 157 0 290 3 298 3 10 67 12 297 10 l293 -3 0 -295z m-3960 -660 l0 -295 -295 0 -295 0 -3 285 c-1 157 0 290 3 298 3 10 67 12 297 10 l293 -3 0 -295z m1320 0 l0 -295 -295 0 -295 0 -3 285 c-1 157 0 290 3 298 3 10 67 12 297 10 l293 -3 0 -295z m2640 0 l0 -295 -295 0 -295 0 -3 285 c-1 157 0 290 3 298 3 10 67 12 297 10 l293 -3 0 -295z m-3960 -660 l0 -295 -295 0 -295 0 -3 285 c-1 157 0 290 3 298 3 10 67 12 297 10 l293 -3 0 -295z m1320 0 l0 -295 -295 0 -295 0 -3 285 c-1 157 0 290 3 298 3 10 67 12 297 10 l293 -3 0 -295z m1320 0 l0 -295 -295 0 -295 0 -3 285 c-1 157 0 290 3 298 3 10 67 12 297 10 l293 -3 0 -295z m1320 0 l0 -295 -295 0 -295 0 -3 285 c-1 157 0 290 3 298 3 10 67 12 297 10 l293 -3 0 -295z m-2640 -660 l0 -295 -295 0 -295 0 -3 285 c-1 157 0 290 3 298 3 10 67 12 297 10 l293 -3 0 -295z m1320 0 l0 -295 -295 0 -295 0 -3 285 c-1 157 0 290 3 298 3 10 67 12 297 10 l293 -3 0 -295z m-2640 -660 l0 -295 -295 0 -295 0 -3 285 c-1 157 0 290 3 298 3 10 67 12 297 10 l293 -3 0 -295z m660 0 l0 -295 -295 0 -295 0 -3 285 c-1 157 0 290 3 298 3 10 67 12 297 10 l293 -3 0 -295z m660 0 l0 -295 -295 0 -295 0 -3 285 c-1 157 0 290 3 298 3 10 67 12 297 10 l293 -3 0 -295z m660 0 l0 -295 -295 0 -295 0 -3 285 c-1 157 0 290 3 298 3 10 67 12 297 10 l293 -3 0 -295z m660 0 l0 -295 -295 0 -295 0 -3 285 c-1 157 0 290 3 298 3 10 67 12 297 10 l293 -3 0 -295z m660 0 l0 -295 -295 0 -295 0 -3 285 c-1 157 0 290 3 298 3 10 67 12 297 10 l293 -3 0 -295z m660 0 l0 -295 -295 0 -295 0 -3 285 c-1 157 0 290 3 298 3 10 67 12 297 10 l293 -3 0 -295z"/> <path d="M993 5133 c-26 -10 -12 -48 34 -95 31 -31 44 -51 37 -58 -5 -5 -79 -11 -164 -12 -154 -3 -155 -3 -158 -27 -2 -13 1 -28 8 -35 7 -7 68 -13 158 -16 101 -3 147 -9 147 -17 0 -6 -17 -30 -38 -52 -46 -50 -48 -84 -3 -89 24 -3 41 9 117 85 64 64 89 96 89 114 0 18 -26 50 -93 117 -87 87 -104 98 -134 85z"/> <path d="M2312 5128 c-21 -21 -13 -41 35 -90 31 -31 44 -51 37 -58 -5 -5 -79 -11 -164 -12 -154 -3 -155 -3 -158 -27 -2 -13 1 -28 8 -35 7 -7 68 -13 158 -16 101 -3 147 -9 147 -17 0 -6 -17 -30 -38 -52 -46 -50 -48 -84 -3 -89 24 -3 41 9 117 85 64 64 89 96 89 114 0 18 -26 50 -93 117 -92 91 -112 103 -135 80z"/> <path d="M2972 5128 c-21 -21 -13 -41 35 -90 31 -31 44 -51 37 -58 -5 -5 -79 -11 -164 -12 -154 -3 -155 -3 -158 -27 -2 -13 1 -28 8 -35 7 -7 68 -13 158 -16 101 -3 147 -9 147 -17 0 -6 -17 -30 -38 -52 -46 -50 -48 -84 -3 -89 24 -3 41 9 117 85 64 64 89 96 89 114 0 18 -26 50 -93 117 -92 91 -112 103 -135 80z"/> <path d="M3633 5133 c-26 -10 -12 -48 34 -95 31 -31 44 -51 37 -58 -5 -5 -79 -11 -164 -12 -154 -3 -155 -3 -158 -27 -2 -13 1 -28 8 -35 7 -7 68 -13 158 -16 101 -3 147 -9 147 -17 0 -6 -17 -30 -38 -52 -46 -50 -48 -84 -3 -89 24 -3 41 9 117 85 64 64 89 96 89 114 0 18 -26 50 -93 117 -87 87 -104 98 -134 85z"/> <path d="M4293 5133 c-26 -10 -12 -48 34 -95 31 -31 44 -51 37 -58 -5 -5 -79 -11 -164 -12 -154 -3 -155 -3 -158 -27 -2 -13 1 -28 8 -35 7 -7 68 -13 158 -16 101 -3 147 -9 147 -17 0 -6 -17 -30 -38 -52 -46 -50 -48 -84 -3 -89 24 -3 41 9 117 85 64 64 89 96 89 114 0 18 -26 50 -93 117 -87 87 -104 98 -134 85z"/> <path d="M4953 5133 c-26 -10 -12 -48 34 -95 31 -31 44 -51 37 -58 -5 -5 -79 -11 -164 -12 -154 -3 -155 -3 -158 -27 -2 -13 1 -28 8 -35 7 -7 68 -13 158 -16 101 -3 147 -9 147 -17 0 -6 -17 -30 -38 -52 -46 -50 -48 -84 -3 -89 24 -3 41 9 117 85 64 64 89 96 89 114 0 18 -26 50 -93 117 -87 87 -104 98 -134 85z"/> <path d="M5504 5076 c-47 -42 -52 -50 -58 -100 -9 -71 11 -116 71 -156 37 -26 53 -30 108 -30 35 0 67 5 70 11 4 5 18 14 31 19 19 8 24 17 24 45 0 22 6 38 15 41 8 4 15 12 15 20 0 11 -18 14 -75 14 -54 0 -75 -4 -75 -13 0 -7 10 -17 22 -22 15 -7 22 -19 22 -35 0 -39 -12 -50 -54 -50 -43 0 -68 20 -95 75 -20 44 -19 78 5 124 30 59 46 71 97 71 66 0 51 24 -18 28 -51 3 -56 1 -105 -42z"/> <path d="M5703 5093 c-29 -6 -29 -9 7 -45 32 -32 45 -24 38 23 -3 24 -11 28 -45 22z"/> <path d="M993 4473 c-26 -10 -12 -48 34 -95 31 -31 44 -51 37 -58 -5 -5 -79 -11 -164 -12 -154 -3 -155 -3 -158 -27 -2 -13 1 -28 8 -35 7 -7 68 -13 158 -16 101 -3 147 -9 147 -17 0 -6 -17 -30 -38 -52 -46 -50 -48 -84 -3 -89 24 -3 41 9 117 85 64 64 89 96 89 114 0 18 -26 50 -93 117 -87 87 -104 98 -134 85z"/> <path d="M3633 4473 c-26 -10 -12 -48 33 -94 26 -26 43 -52 40 -58 -5 -7 -57 -11 -151 -11 -79 0 -150 -3 -159 -6 -19 -7 -21 -49 -3 -61 6 -4 77 -10 157 -13 100 -3 145 -9 145 -17 0 -6 -17 -30 -38 -52 -46 -50 -48 -84 -3 -89 24 -3 41 9 117 85 64 64 89 96 89 114 0 18 -26 50 -93 117 -87 87 -104 98 -134 85z"/> <path d="M993 3813 c-26 -10 -12 -48 34 -95 31 -31 44 -51 37 -58 -5 -5 -79 -11 -164 -12 -154 -3 -155 -3 -158 -27 -2 -13 1 -28 8 -35 7 -7 68 -13 158 -16 101 -3 147 -9 147 -17 0 -6 -17 -30 -38 -52 -46 -50 -48 -84 -3 -89 24 -3 41 9 117 85 64 64 89 96 89 114 0 18 -26 50 -93 117 -87 87 -104 98 -134 85z"/> <path d="M1652 3808 c-21 -21 -13 -41 35 -90 31 -31 44 -51 37 -58 -5 -5 -79 -11 -164 -12 -154 -3 -155 -3 -158 -27 -2 -13 1 -28 8 -35 7 -7 68 -13 158 -16 101 -3 147 -9 147 -17 0 -6 -17 -30 -38 -52 -46 -50 -48 -84 -3 -89 24 -3 41 9 117 85 64 64 89 96 89 114 0 18 -26 50 -93 117 -92 91 -112 103 -135 80z"/> <path d="M2312 3808 c-21 -21 -13 -41 35 -90 31 -31 44 -51 37 -58 -5 -5 -79 -11 -164 -12 -154 -3 -155 -3 -158 -27 -2 -13 1 -28 8 -35 7 -7 68 -13 158 -16 101 -3 147 -9 147 -17 0 -6 -17 -30 -38 -52 -46 -50 -48 -84 -3 -89 24 -3 41 9 117 85 64 64 89 96 89 114 0 18 -26 50 -93 117 -92 91 -112 103 -135 80z"/> <path d="M2973 3813 c-26 -10 -12 -48 34 -95 31 -31 44 -51 37 -58 -5 -5 -79 -11 -164 -12 -154 -3 -155 -3 -158 -27 -2 -13 1 -28 8 -35 7 -7 68 -13 158 -16 101 -3 147 -9 147 -17 0 -6 -17 -30 -38 -52 -46 -50 -48 -84 -3 -89 24 -3 41 9 117 85 64 64 89 96 89 114 0 18 -26 50 -93 117 -87 87 -104 98 -134 85z"/> <path d="M3632 3808 c-21 -21 -13 -41 35 -90 31 -31 44 -51 37 -58 -5 -5 -79 -11 -164 -12 -154 -3 -155 -3 -158 -27 -2 -13 1 -28 8 -35 7 -7 68 -13 158 -16 101 -3 147 -9 147 -17 0 -6 -17 -30 -38 -52 -46 -50 -48 -84 -3 -89 24 -3 41 9 117 85 64 64 89 96 89 114 0 18 -26 50 -93 117 -92 91 -112 103 -135 80z"/> <path d="M4292 3808 c-21 -21 -13 -41 35 -90 31 -31 44 -51 37 -58 -5 -5 -79 -11 -164 -12 -154 -3 -155 -3 -158 -27 -2 -13 1 -28 8 -35 7 -7 68 -13 158 -16 101 -3 147 -9 147 -17 0 -6 -17 -30 -38 -52 -46 -50 -48 -84 -3 -89 24 -3 41 9 117 85 64 64 89 96 89 114 0 18 -26 50 -93 117 -92 91 -112 103 -135 80z"/> <path d="M4953 3813 c-26 -10 -12 -48 34 -95 31 -31 44 -51 37 -58 -5 -5 -79 -11 -164 -12 -154 -3 -155 -3 -158 -27 -2 -13 1 -28 8 -35 7 -7 68 -13 158 -16 101 -3 147 -9 147 -17 0 -6 -17 -30 -38 -52 -46 -50 -48 -84 -3 -89 24 -3 41 9 117 85 64 64 89 96 89 114 0 18 -26 50 -93 117 -87 87 -104 98 -134 85z"/> <path d="M993 3153 c-26 -10 -12 -48 34 -95 31 -31 44 -51 37 -58 -5 -5 -79 -11 -164 -12 -154 -3 -155 -3 -158 -27 -2 -13 1 -28 8 -35 7 -7 68 -13 158 -16 101 -3 147 -9 147 -17 0 -6 -17 -30 -38 -52 -46 -50 -48 -84 -3 -89 24 -3 41 9 117 85 64 64 89 96 89 114 0 18 -26 50 -93 117 -87 87 -104 98 -134 85z"/> <path d="M2313 3153 c-26 -10 -12 -48 34 -95 31 -31 44 -51 37 -58 -5 -5 -79 -11 -164 -12 -154 -3 -155 -3 -158 -27 -2 -13 1 -28 8 -35 7 -7 68 -13 158 -16 101 -3 147 -9 147 -17 0 -6 -17 -30 -38 -52 -46 -50 -48 -84 -3 -89 24 -3 41 9 117 85 64 64 89 96 89 114 0 18 -26 50 -93 117 -87 87 -104 98 -134 85z"/> <path d="M4953 3153 c-26 -10 -12 -48 34 -95 31 -31 44 -51 37 -58 -5 -5 -79 -11 -164 -12 -154 -3 -155 -3 -158 -27 -2 -13 1 -28 8 -35 7 -7 68 -13 158 -16 101 -3 147 -9 147 -17 0 -6 -17 -30 -38 -52 -46 -50 -48 -84 -3 -89 24 -3 41 9 117 85 64 64 89 96 89 114 0 18 -26 50 -93 117 -87 87 -104 98 -134 85z"/> <path d="M993 2493 c-26 -10 -12 -48 34 -95 31 -31 44 -51 37 -58 -5 -5 -79 -11 -164 -12 -154 -3 -155 -3 -158 -27 -2 -13 1 -28 8 -35 7 -7 68 -13 158 -16 101 -3 147 -9 147 -17 0 -6 -17 -30 -38 -52 -46 -50 -48 -84 -3 -89 24 -3 41 9 117 85 64 64 89 96 89 114 0 18 -26 50 -93 117 -87 87 -104 98 -134 85z"/> <path d="M2312 2488 c-21 -21 -13 -41 35 -90 31 -31 44 -51 37 -58 -5 -5 -79 -11 -164 -12 -154 -3 -155 -3 -158 -27 -2 -13 1 -28 8 -35 7 -7 68 -13 158 -16 101 -3 147 -9 147 -17 0 -6 -17 -30 -38 -52 -46 -50 -48 -84 -3 -89 24 -3 41 9 117 85 64 64 89 96 89 114 0 18 -26 50 -93 117 -92 91 -112 103 -135 80z"/> <path d="M3632 2488 c-21 -21 -13 -41 35 -90 31 -31 44 -51 37 -58 -5 -5 -79 -11 -164 -12 -154 -3 -155 -3 -158 -27 -2 -13 1 -28 8 -35 7 -7 68 -13 158 -16 101 -3 147 -9 147 -17 0 -6 -17 -30 -38 -52 -46 -50 -48 -84 -3 -89 24 -3 41 9 117 85 64 64 89 96 89 114 0 18 -26 50 -93 117 -92 91 -112 103 -135 80z"/> <path d="M4953 2493 c-26 -10 -12 -48 34 -95 31 -31 44 -51 37 -58 -5 -5 -79 -11 -164 -12 -154 -3 -155 -3 -158 -27 -2 -13 1 -28 8 -35 7 -7 68 -13 158 -16 101 -3 147 -9 147 -17 0 -6 -17 -30 -38 -52 -46 -50 -48 -84 -3 -89 24 -3 41 9 117 85 64 64 89 96 89 114 0 18 -26 50 -93 117 -87 87 -104 98 -134 85z"/> <path d="M2312 1828 c-21 -21 -13 -41 34 -89 26 -26 43 -52 40 -58 -5 -7 -57 -11 -151 -11 -79 0 -150 -3 -159 -6 -19 -7 -21 -49 -3 -61 6 -4 77 -10 157 -13 100 -3 145 -9 145 -17 0 -6 -17 -30 -38 -52 -46 -50 -48 -84 -3 -89 24 -3 41 9 117 85 64 64 89 96 89 114 0 18 -26 50 -93 117 -92 91 -112 103 -135 80z"/> <path d="M3632 1828 c-21 -21 -13 -41 34 -89 26 -26 43 -52 40 -58 -5 -7 -57 -11 -151 -11 -79 0 -150 -3 -159 -6 -19 -7 -21 -49 -3 -61 6 -4 77 -10 157 -13 100 -3 145 -9 145 -17 0 -6 -17 -30 -38 -52 -46 -50 -48 -84 -3 -89 24 -3 41 9 117 85 64 64 89 96 89 114 0 18 -26 50 -93 117 -92 91 -112 103 -135 80z"/> <path d="M993 1173 c-26 -10 -12 -48 34 -95 31 -31 44 -51 37 -58 -5 -5 -79 -11 -164 -12 -154 -3 -155 -3 -158 -27 -2 -13 1 -28 8 -35 7 -7 68 -13 158 -16 101 -3 147 -9 147 -17 0 -6 -17 -30 -38 -52 -46 -50 -48 -84 -3 -89 24 -3 41 9 117 85 64 64 89 96 89 114 0 18 -26 50 -93 117 -87 87 -104 98 -134 85z"/> <path d="M1652 1168 c-21 -21 -13 -41 35 -90 31 -31 44 -51 37 -58 -5 -5 -79 -11 -164 -12 -154 -3 -155 -3 -158 -27 -2 -13 1 -28 8 -35 7 -7 68 -13 158 -16 101 -3 147 -9 147 -17 0 -6 -17 -30 -38 -52 -46 -50 -48 -84 -3 -89 24 -3 41 9 117 85 64 64 89 96 89 114 0 18 -26 50 -93 117 -92 91 -112 103 -135 80z"/> <path d="M2313 1173 c-26 -10 -12 -48 34 -95 31 -31 44 -51 37 -58 -5 -5 -79 -11 -164 -12 -154 -3 -155 -3 -158 -27 -2 -13 1 -28 8 -35 7 -7 68 -13 158 -16 101 -3 147 -9 147 -17 0 -6 -17 -30 -38 -52 -47 -51 -48 -84 -2 -89 27 -3 41 8 118 86 60 62 87 97 87 113 0 17 -27 51 -93 117 -87 87 -104 98 -134 85z"/> <path d="M2973 1173 c-26 -10 -12 -48 34 -95 31 -31 44 -51 37 -58 -5 -5 -79 -11 -164 -12 -154 -3 -155 -3 -158 -27 -2 -13 1 -28 8 -35 7 -7 68 -13 158 -16 101 -3 147 -9 147 -17 0 -6 -17 -30 -38 -52 -46 -50 -48 -84 -3 -89 24 -3 41 9 117 85 64 64 89 96 89 114 0 18 -26 50 -93 117 -87 87 -104 98 -134 85z"/> <path d="M3633 1173 c-26 -10 -12 -48 33 -94 26 -26 43 -52 40 -58 -5 -7 -57 -11 -151 -11 -79 0 -150 -3 -159 -6 -19 -7 -21 -49 -3 -61 6 -4 77 -10 157 -13 100 -3 145 -9 145 -17 0 -6 -17 -30 -38 -52 -46 -50 -48 -84 -3 -89 24 -3 41 9 117 85 64 64 89 96 89 114 0 18 -26 50 -93 117 -87 87 -104 98 -134 85z"/> <path d="M4292 1168 c-21 -21 -13 -41 35 -90 31 -31 44 -51 37 -58 -5 -5 -79 -11 -164 -12 -154 -3 -155 -3 -158 -27 -2 -13 1 -28 8 -35 7 -7 68 -13 158 -16 101 -3 147 -9 147 -17 0 -6 -17 -30 -38 -52 -46 -50 -48 -84 -3 -89 24 -3 41 9 117 85 64 64 89 96 89 114 0 18 -26 50 -93 117 -92 91 -112 103 -135 80z"/> <path d="M4953 1173 c-26 -10 -12 -48 34 -95 31 -31 44 -51 37 -58 -5 -5 -79 -11 -164 -12 -154 -3 -155 -3 -158 -27 -2 -13 1 -28 8 -35 7 -7 68 -13 158 -16 101 -3 147 -9 147 -17 0 -6 -17 -30 -38 -52 -46 -50 -48 -84 -3 -89 24 -3 41 9 117 85 64 64 89 96 89 114 0 18 -26 50 -93 117 -87 87 -104 98 -134 85z"/> </g> </svg> 