 <svg version="1.0" xmlns="http://www.w3.org/2000/svg"  width="594.000000pt" height="594.000000pt" viewBox="0 0 594.000000 594.000000"  preserveAspectRatio="xMidYMid meet">  <g transform="translate(0.000000,594.000000) scale(0.100000,-0.100000)" fill="#000000" stroke="none"> <path d="M655 5258 c-3 -7 -4 -749 -3 -1648 l3 -1635 325 0 325 0 3 658 2 657 328 -2 327 -3 3 -987 2 -988 -657 -2 -658 -3 0 -325 0 -325 2305 0 2305 0 0 325 0 325 -657 3 -658 2 -2 658 -3 657 -325 0 -325 0 -3 -657 -2 -658 -330 0 -330 0 0 990 0 990 990 0 990 0 2 -657 3 -658 325 0 325 0 0 985 0 985 -657 3 -658 2 0 330 0 330 995 0 995 0 0 330 0 330 -1982 -2 -1983 -3 0 -325 0 -325 658 -3 657 -2 -2 -328 -3 -327 -987 -3 -988 -2 -2 657 -3 658 -323 3 c-253 2 -324 0 -327 -10z m620 -318 l0 -295 -295 0 -295 0 -3 285 c-1 157 0 290 3 298 3 10 67 12 297 10 l293 -3 0 -295z m1320 0 l0 -295 -295 0 -295 0 -3 285 c-1 157 0 290 3 298 3 10 67 12 297 10 l293 -3 0 -295z m660 0 l0 -295 -295 0 -295 0 -3 285 c-1 157 0 290 3 298 3 10 67 12 297 10 l293 -3 0 -295z m660 0 l0 -295 -295 0 -295 0 -3 285 c-1 157 0 290 3 298 3 10 67 12 297 10 l293 -3 0 -295z m660 0 l0 -295 -295 0 -295 0 -3 285 c-1 157 0 290 3 298 3 10 67 12 297 10 l293 -3 0 -295z m660 0 l0 -295 -295 0 -295 0 -3 285 c-1 157 0 290 3 298 3 10 67 12 297 10 l293 -3 0 -295z m660 0 l0 -295 -295 0 -295 0 -3 285 c-1 157 0 290 3 298 3 10 67 12 297 10 l293 -3 0 -295z m-4620 -660 l0 -295 -295 0 -295 0 -3 285 c-1 157 0 290 3 298 3 10 67 12 297 10 l293 -3 0 -295z m2640 0 l0 -295 -295 0 -295 0 -3 285 c-1 157 0 290 3 298 3 10 67 12 297 10 l293 -3 0 -295z m-2640 -660 l0 -295 -295 0 -295 0 -3 285 c-1 157 0 290 3 298 3 10 67 12 297 10 l293 -3 0 -295z m660 0 l0 -295 -295 0 -295 0 -3 285 c-1 157 0 290 3 298 3 10 67 12 297 10 l293 -3 0 -295z m660 0 l0 -295 -295 0 -295 0 -3 285 c-1 157 0 290 3 298 3 10 67 12 297 10 l293 -3 0 -295z m660 0 l0 -295 -295 0 -295 0 -3 285 c-1 157 0 290 3 298 3 10 67 12 297 10 l293 -3 0 -295z m660 0 l0 -295 -295 0 -295 0 -3 285 c-1 157 0 290 3 298 3 10 67 12 297 10 l293 -3 0 -295z m660 0 l0 -295 -295 0 -295 0 -3 285 c-1 157 0 290 3 298 3 10 67 12 297 10 l293 -3 0 -295z m660 0 l0 -295 -295 0 -295 0 -3 285 c-1 157 0 290 3 298 3 10 67 12 297 10 l293 -3 0 -295z m-3960 -660 l0 -295 -295 0 -295 0 -3 285 c-1 157 0 290 3 298 3 10 67 12 297 10 l293 -3 0 -295z m1320 0 l0 -295 -295 0 -295 0 -3 285 c-1 157 0 290 3 298 3 10 67 12 297 10 l293 -3 0 -295z m2640 0 l0 -295 -295 0 -295 0 -3 285 c-1 157 0 290 3 298 3 10 67 12 297 10 l293 -3 0 -295z m-3960 -660 l0 -295 -295 0 -295 0 -3 285 c-1 157 0 290 3 298 3 10 67 12 297 10 l293 -3 0 -295z m1320 0 l0 -295 -295 0 -295 0 -3 285 c-1 157 0 290 3 298 3 10 67 12 297 10 l293 -3 0 -295z m1320 0 l0 -295 -295 0 -295 0 -3 285 c-1 157 0 290 3 298 3 10 67 12 297 10 l293 -3 0 -295z m1320 0 l0 -295 -295 0 -295 0 -3 285 c-1 157 0 290 3 298 3 10 67 12 297 10 l293 -3 0 -295z m-2640 -660 l0 -295 -295 0 -295 0 -3 285 c-1 157 0 290 3 298 3 10 67 12 297 10 l293 -3 0 -295z m1320 0 l0 -295 -295 0 -295 0 -3 285 c-1 157 0 290 3 298 3 10 67 12 297 10 l293 -3 0 -295z m-2640 -660 l0 -295 -295 0 -295 0 -3 285 c-1 157 0 290 3 298 3 10 67 12 297 10 l293 -3 0 -295z m660 0 l0 -295 -295 0 -295 0 -3 285 c-1 157 0 290 3 298 3 10 67 12 297 10 l293 -3 0 -295z m660 0 l0 -295 -295 0 -295 0 -3 285 c-1 157 0 290 3 298 3 10 67 12 297 10 l293 -3 0 -295z m660 0 l0 -295 -295 0 -295 0 -3 285 c-1 157 0 290 3 298 3 10 67 12 297 10 l293 -3 0 -295z m660 0 l0 -295 -295 0 -295 0 -3 285 c-1 157 0 290 3 298 3 10 67 12 297 10 l293 -3 0 -295z m660 0 l0 -295 -295 0 -295 0 -3 285 c-1 157 0 290 3 298 3 10 67 12 297 10 l293 -3 0 -295z m660 0 l0 -295 -295 0 -295 0 -3 285 c-1 157 0 290 3 298 3 10 67 12 297 10 l293 -3 0 -295z"/> <path d="M866 5083 c-104 -104 -118 -135 -63 -141 22 -3 39 6 72 37 25 23 49 41 55 41 6 0 10 -53 10 -144 0 -79 3 -151 6 -160 4 -9 18 -16 34 -16 16 0 30 7 34 16 3 9 6 81 6 160 0 91 4 144 10 144 6 0 30 -18 55 -41 48 -45 96 -52 103 -15 5 22 -183 216 -209 216 -9 0 -60 -43 -113 -97z"/> <path d="M2186 5083 c-104 -104 -118 -135 -63 -141 22 -3 39 6 72 37 25 23 49 41 55 41 6 0 10 -53 10 -144 0 -79 3 -151 6 -160 4 -9 18 -16 34 -16 16 0 30 7 34 16 3 9 6 81 6 160 0 91 4 144 10 144 6 0 30 -18 55 -41 48 -45 96 -52 103 -15 5 22 -183 216 -209 216 -9 0 -60 -43 -113 -97z"/> <path d="M2846 5083 c-104 -104 -118 -135 -63 -141 22 -3 39 6 72 37 25 23 49 41 55 41 6 0 10 -53 10 -144 0 -79 3 -151 6 -160 4 -9 18 -16 34 -16 16 0 30 7 34 16 3 9 6 81 6 160 0 91 4 144 10 144 6 0 30 -18 55 -41 48 -45 96 -52 103 -15 5 22 -183 216 -209 216 -9 0 -60 -43 -113 -97z"/> <path d="M3506 5083 c-104 -105 -117 -135 -63 -141 22 -3 39 6 72 37 25 23 49 41 55 41 6 0 10 -53 10 -144 0 -79 3 -151 6 -160 4 -9 18 -16 34 -16 16 0 30 7 34 16 3 9 6 81 6 160 0 91 4 144 10 144 6 0 30 -18 55 -41 33 -31 50 -40 72 -37 53 6 37 41 -67 144 -52 51 -102 94 -112 94 -9 0 -59 -44 -112 -97z"/> <path d="M4166 5083 c-104 -104 -118 -135 -63 -141 22 -3 39 6 72 37 25 23 49 41 55 41 6 0 10 -53 10 -144 0 -79 3 -151 6 -160 4 -9 18 -16 34 -16 16 0 30 7 34 16 3 9 6 81 6 160 0 91 4 144 10 144 6 0 30 -18 55 -41 48 -45 96 -52 103 -15 5 22 -183 216 -209 216 -9 0 -60 -43 -113 -97z"/> <path d="M4826 5083 c-104 -105 -117 -135 -63 -141 22 -3 39 6 72 37 25 23 49 41 55 41 6 0 10 -53 10 -144 0 -79 3 -151 6 -160 4 -9 18 -16 34 -16 16 0 30 7 34 16 3 9 6 81 6 160 0 91 4 144 10 144 6 0 30 -18 55 -41 48 -45 96 -52 103 -15 5 22 -183 216 -209 216 -10 0 -60 -44 -113 -97z"/> <path d="M5504 5076 c-47 -42 -52 -50 -58 -100 -9 -71 11 -116 71 -156 37 -26 53 -30 108 -30 35 0 67 5 70 11 4 5 18 14 31 19 19 8 24 17 24 45 0 22 6 38 15 41 8 4 15 12 15 20 0 11 -18 14 -75 14 -54 0 -75 -4 -75 -13 0 -7 10 -17 22 -22 15 -7 22 -19 22 -35 0 -39 -12 -50 -54 -50 -43 0 -68 20 -95 75 -20 44 -19 78 5 124 30 59 46 71 97 71 66 0 51 24 -18 28 -51 3 -56 1 -105 -42z"/> <path d="M5703 5093 c-29 -6 -29 -9 7 -45 32 -32 45 -24 38 23 -3 24 -11 28 -45 22z"/> <path d="M866 4423 c-104 -104 -118 -135 -63 -141 22 -3 39 6 72 37 25 23 49 41 55 41 6 0 10 -53 10 -144 0 -79 3 -151 6 -160 4 -9 18 -16 34 -16 16 0 30 7 34 16 3 9 6 81 6 160 0 91 4 144 10 144 6 0 30 -18 55 -41 48 -45 96 -52 103 -15 5 22 -183 216 -209 216 -9 0 -60 -43 -113 -97z"/> <path d="M3506 4423 c-104 -104 -118 -135 -63 -141 22 -3 39 6 72 37 25 23 49 41 55 41 6 0 10 -53 10 -144 0 -79 3 -151 6 -160 4 -9 18 -16 34 -16 16 0 30 7 34 16 3 9 6 81 6 160 0 91 4 144 10 144 6 0 30 -18 55 -41 48 -45 96 -52 103 -15 5 22 -183 216 -209 216 -9 0 -60 -43 -113 -97z"/> <path d="M866 3763 c-104 -104 -118 -135 -63 -141 22 -3 39 6 72 37 25 23 49 41 55 41 6 0 10 -53 10 -144 0 -79 3 -151 6 -160 4 -9 18 -16 34 -16 16 0 30 7 34 16 3 9 6 81 6 160 0 91 4 144 10 144 6 0 30 -18 55 -41 48 -45 96 -52 103 -15 5 22 -183 216 -209 216 -9 0 -60 -43 -113 -97z"/> <path d="M1526 3763 c-104 -104 -118 -135 -63 -141 22 -3 39 6 72 37 25 23 49 41 55 41 6 0 10 -53 10 -144 0 -79 3 -151 6 -160 4 -9 18 -16 34 -16 16 0 30 7 34 16 3 9 6 81 6 160 0 91 4 144 10 144 6 0 30 -18 55 -41 48 -45 96 -52 103 -15 5 22 -183 216 -209 216 -9 0 -60 -43 -113 -97z"/> <path d="M2186 3763 c-104 -104 -118 -135 -63 -141 22 -3 39 6 72 37 25 23 49 41 55 41 6 0 10 -53 10 -144 0 -79 3 -151 6 -160 4 -9 18 -16 34 -16 16 0 30 7 34 16 3 9 6 81 6 160 0 91 4 144 10 144 6 0 30 -18 55 -41 48 -45 96 -52 103 -15 5 22 -183 216 -209 216 -9 0 -60 -43 -113 -97z"/> <path d="M2846 3763 c-104 -104 -118 -135 -63 -141 22 -3 39 6 72 37 25 23 49 41 55 41 6 0 10 -53 10 -144 0 -79 3 -151 6 -160 4 -9 18 -16 34 -16 16 0 30 7 34 16 3 9 6 81 6 160 0 91 4 144 10 144 6 0 30 -18 55 -41 48 -45 96 -52 103 -15 5 22 -183 216 -209 216 -9 0 -60 -43 -113 -97z"/> <path d="M3506 3763 c-104 -104 -118 -135 -63 -141 22 -3 39 6 72 37 25 23 49 41 55 41 6 0 10 -53 10 -144 0 -79 3 -151 6 -160 4 -9 18 -16 34 -16 16 0 30 7 34 16 3 9 6 81 6 160 0 91 4 144 10 144 6 0 30 -18 55 -41 48 -45 96 -52 103 -15 5 22 -183 216 -209 216 -9 0 -60 -43 -113 -97z"/> <path d="M4166 3763 c-104 -104 -118 -135 -63 -141 22 -3 39 6 72 37 25 23 49 41 55 41 6 0 10 -53 10 -144 0 -79 3 -151 6 -160 4 -9 18 -16 34 -16 16 0 30 7 34 16 3 9 6 81 6 160 0 91 4 144 10 144 6 0 30 -18 55 -41 48 -45 96 -52 103 -15 5 22 -183 216 -209 216 -9 0 -60 -43 -113 -97z"/> <path d="M4826 3763 c-104 -105 -117 -135 -63 -141 22 -3 39 6 72 37 25 23 49 41 55 41 6 0 10 -53 10 -144 0 -79 3 -151 6 -160 4 -9 18 -16 34 -16 16 0 30 7 34 16 3 9 6 81 6 160 0 91 4 144 10 144 6 0 30 -18 55 -41 48 -45 96 -52 103 -15 5 22 -183 216 -209 216 -10 0 -60 -44 -113 -97z"/> <path d="M866 3103 c-104 -105 -117 -135 -63 -141 22 -3 39 6 72 37 25 23 49 41 55 41 6 0 10 -53 10 -144 0 -79 3 -151 6 -160 4 -9 18 -16 34 -16 16 0 30 7 34 16 3 9 6 81 6 160 0 91 4 144 10 144 6 0 30 -18 55 -41 48 -45 96 -52 103 -15 5 22 -183 216 -209 216 -10 0 -60 -44 -113 -97z"/> <path d="M2186 3103 c-104 -104 -118 -135 -63 -141 22 -3 39 6 72 37 25 23 49 41 55 41 6 0 10 -53 10 -144 0 -79 3 -151 6 -160 4 -9 18 -16 34 -16 16 0 30 7 34 16 3 9 6 81 6 160 0 91 4 144 10 144 6 0 30 -18 55 -41 48 -45 96 -52 103 -15 5 22 -183 216 -209 216 -9 0 -60 -43 -113 -97z"/> <path d="M4826 3103 c-104 -105 -117 -135 -63 -141 22 -3 39 6 72 37 25 23 49 41 55 41 6 0 10 -53 10 -144 0 -79 3 -151 6 -160 4 -9 18 -16 34 -16 16 0 30 7 34 16 3 9 6 81 6 160 0 91 4 144 10 144 6 0 30 -18 55 -41 48 -45 96 -52 103 -15 5 22 -183 216 -209 216 -10 0 -60 -44 -113 -97z"/> <path d="M866 2443 c-104 -104 -118 -135 -63 -141 22 -3 39 6 72 37 25 23 49 41 55 41 6 0 10 -53 10 -144 0 -79 3 -151 6 -160 4 -9 18 -16 34 -16 16 0 30 7 34 16 3 9 6 81 6 160 0 91 4 144 10 144 6 0 30 -18 55 -41 48 -45 96 -52 103 -15 5 22 -183 216 -209 216 -9 0 -60 -43 -113 -97z"/> <path d="M2186 2443 c-104 -104 -118 -135 -63 -141 22 -3 39 6 72 37 25 23 49 41 55 41 6 0 10 -53 10 -144 0 -79 3 -151 6 -160 4 -9 18 -16 34 -16 16 0 30 7 34 16 3 9 6 81 6 160 0 91 4 144 10 144 6 0 30 -18 55 -41 48 -45 96 -52 103 -15 5 22 -183 216 -209 216 -9 0 -60 -43 -113 -97z"/> <path d="M3506 2443 c-104 -104 -118 -135 -63 -141 22 -3 39 6 72 37 25 23 49 41 55 41 6 0 10 -53 10 -144 0 -79 3 -151 6 -160 4 -9 18 -16 34 -16 16 0 30 7 34 16 3 9 6 81 6 160 0 91 4 144 10 144 6 0 30 -18 55 -41 48 -45 96 -52 103 -15 5 22 -183 216 -209 216 -9 0 -60 -43 -113 -97z"/> <path d="M4826 2443 c-104 -105 -117 -135 -63 -141 22 -3 39 6 72 37 25 23 49 41 55 41 6 0 10 -53 10 -144 0 -79 3 -151 6 -160 4 -9 18 -16 34 -16 16 0 30 7 34 16 3 9 6 81 6 160 0 91 4 144 10 144 6 0 30 -18 55 -41 48 -45 96 -52 103 -15 5 22 -183 216 -209 216 -10 0 -60 -44 -113 -97z"/> <path d="M2186 1783 c-104 -104 -118 -135 -63 -141 22 -3 39 6 72 37 25 23 49 41 55 41 6 0 10 -53 10 -144 0 -79 3 -151 6 -160 4 -9 18 -16 34 -16 16 0 30 7 34 16 3 9 6 81 6 160 0 91 4 144 10 144 6 0 30 -18 55 -41 48 -45 96 -52 103 -15 5 22 -183 216 -209 216 -9 0 -60 -43 -113 -97z"/> <path d="M3506 1783 c-104 -104 -118 -135 -63 -141 22 -3 39 6 72 37 25 23 49 41 55 41 6 0 10 -53 10 -144 0 -79 3 -151 6 -160 4 -9 18 -16 34 -16 16 0 30 7 34 16 3 9 6 81 6 160 0 91 4 144 10 144 6 0 30 -18 55 -41 48 -45 96 -52 103 -15 5 22 -183 216 -209 216 -9 0 -60 -43 -113 -97z"/> <path d="M866 1123 c-104 -104 -118 -135 -63 -141 22 -3 39 6 72 37 25 23 49 41 55 41 6 0 10 -53 10 -144 0 -79 3 -151 6 -160 8 -21 60 -21 68 0 3 9 6 81 6 160 0 91 4 144 10 144 6 0 30 -18 55 -41 48 -45 96 -52 103 -15 5 22 -183 216 -209 216 -9 0 -60 -43 -113 -97z"/> <path d="M1526 1123 c-104 -105 -117 -135 -63 -141 22 -3 39 6 72 37 25 23 49 41 55 41 6 0 10 -53 10 -144 0 -79 3 -151 6 -160 8 -21 60 -21 68 0 3 9 6 81 6 160 0 91 4 144 10 144 6 0 30 -18 55 -41 48 -45 96 -52 103 -15 5 22 -183 216 -209 216 -10 0 -60 -44 -113 -97z"/> <path d="M2186 1123 c-104 -104 -118 -135 -63 -141 22 -3 39 6 72 37 25 23 49 41 55 41 6 0 10 -53 10 -144 0 -79 3 -151 6 -160 8 -21 60 -21 68 0 3 9 6 81 6 160 0 91 4 144 10 144 6 0 30 -18 55 -41 48 -45 96 -52 103 -15 5 22 -183 216 -209 216 -9 0 -60 -43 -113 -97z"/> <path d="M2846 1123 c-104 -104 -118 -135 -63 -141 22 -3 39 6 72 37 25 23 49 41 55 41 6 0 10 -53 10 -144 0 -79 3 -151 6 -160 8 -21 60 -21 68 0 3 9 6 81 6 160 0 91 4 144 10 144 6 0 30 -18 55 -41 48 -45 96 -52 103 -15 5 22 -183 216 -209 216 -9 0 -60 -44 -113 -97z"/> <path d="M3506 1123 c-104 -104 -118 -135 -63 -141 22 -3 39 6 72 37 25 23 49 41 55 41 6 0 10 -53 10 -144 0 -79 3 -151 6 -160 8 -21 60 -21 68 0 3 9 6 81 6 160 0 91 4 144 10 144 6 0 30 -18 55 -41 48 -45 96 -52 103 -15 5 22 -183 216 -209 216 -9 0 -60 -43 -113 -97z"/> <path d="M4166 1123 c-104 -104 -118 -135 -63 -141 22 -3 39 6 72 37 25 23 49 41 55 41 6 0 10 -53 10 -144 0 -79 3 -151 6 -160 8 -21 60 -21 68 0 3 9 6 81 6 160 0 91 4 144 10 144 6 0 30 -18 55 -41 48 -45 96 -52 103 -15 5 22 -183 216 -209 216 -9 0 -60 -43 -113 -97z"/> <path d="M4826 1123 c-104 -105 -117 -135 -63 -141 22 -3 39 6 72 37 25 23 49 41 55 41 6 0 10 -53 10 -144 0 -79 3 -151 6 -160 8 -21 60 -21 68 0 3 9 6 81 6 160 0 91 4 144 10 144 6 0 30 -18 55 -41 48 -45 96 -52 103 -15 5 22 -183 216 -209 216 -10 0 -60 -44 -113 -97z"/> </g> </svg> 